# xmcd CD database file
#
# Track frame offsets:
#	150
#	11979
#	22170
#	34738
#	47494
#	60330
#	72705
#	86056
#	98013
#	113214
#	127451
#	140775
#	155154
#	168681
#	181315
#	194495
#	207479
#	220422
#
# Disc length: 3101 seconds
#
# Revision: 0
# Processed by: cddbd v1.4PL0 Copyright (c) Steve Scherf et al.
# Submitted via: CDex 1.50beta10
#
DISCID=220c1b12
DTITLE=Lowell Fulson - The Original West Coast Blues
DYEAR=2001
DGENRE=Blues
TTITLE0=Crying Blues
TTITLE1=You're Gonna Miss Me
TTITLE2=Miss Katie Lee Blues
TTITLE3=Rambling Blues
TTITLE4=Fulson's Blues
TTITLE5=San Francisco Blues
TTITLE6=Trouble Blues
TTITLE7=I Want To See My Baby
TTITLE8=Black Widow Spider Blues
TTITLE9=Don't Be So Evil
TTITLE10=Scotty's Blues
TTITLE11=The Train Is Leaving
TTITLE12=Jelly, Jelly
TTITLE13=Mean Woman Blues
TTITLE14=9:30 Shuffle
TTITLE15=Thinkin' Blues
TTITLE16=Trying To Find My Baby
TTITLE17=Highway 99
EXTD=YEAR: 2001
EXTT0=
EXTT1=
EXTT2=
EXTT3=
EXTT4=
EXTT5=
EXTT6=
EXTT7=
EXTT8=
EXTT9=
EXTT10=
EXTT11=
EXTT12=
EXTT13=
EXTT14=
EXTT15=
EXTT16=
EXTT17=
PLAYORDER=
